<?xml version="1.0" encoding="utf-8"?>
<!-- Generator: Adobe Illustrator 16.0.0, SVG Export Plug-In . SVG Version: 6.00 Build 0)  -->
<!DOCTYPE svg PUBLIC "-//W3C//DTD SVG 1.1//EN" "http://www.w3.org/Graphics/SVG/1.1/DTD/svg11.dtd">
<svg version="1.1" id="Capa_1" xmlns="http://www.w3.org/2000/svg" xmlns:xlink="http://www.w3.org/1999/xlink" x="0px" y="0px"
	 width="595.28px" height="841.89px" viewBox="0 0 595.28 841.89" enable-background="new 0 0 595.28 841.89" xml:space="preserve">
<path fill="#95C11F" stroke="#95C11F" stroke-width="0.75" stroke-miterlimit="10" d="M388.036,423.489
	c0,7.406-1.264,14.166-3.791,20.279c-2.528,6.113-5.967,11.359-10.316,15.738s-9.449,7.773-15.298,10.184
	s-12.124,3.615-18.825,3.615c-6.643,0-12.888-1.234-18.736-3.703c-5.851-2.469-10.965-5.908-15.343-10.316
	c-4.379-4.408-7.833-9.654-10.36-15.738s-3.791-12.77-3.791-20.059v-98.11h24.159v58.255c1.292-1.646,2.866-3.115,4.718-4.408
	s3.85-2.352,5.995-3.175c2.146-0.822,4.365-1.454,6.657-1.896c2.293-0.44,4.526-0.661,6.701-0.661
	c6.701,0,12.977,1.249,18.825,3.747s10.948,5.981,15.298,10.449c4.35,4.467,7.788,9.742,10.316,15.826
	C386.772,409.601,388.036,416.259,388.036,423.489z M363.789,423.489c0-3.645-0.632-7.039-1.896-10.186
	c-1.264-3.145-2.982-5.863-5.158-8.154c-2.175-2.293-4.717-4.086-7.627-5.379c-2.909-1.293-6.01-1.939-9.302-1.939
	s-6.393,0.72-9.303,2.16c-2.909,1.44-5.451,3.35-7.626,5.731c-2.176,2.381-3.88,5.113-5.114,8.199
	c-1.234,3.088-1.852,6.275-1.852,9.568c0,3.645,0.617,7.023,1.852,10.139s2.938,5.82,5.114,8.113c2.175,2.291,4.717,4.1,7.626,5.422
	c2.91,1.322,6.011,1.984,9.303,1.984s6.393-0.662,9.302-1.984c2.91-1.322,5.452-3.131,7.627-5.422
	c2.176-2.293,3.895-4.998,5.158-8.113C363.157,430.513,363.789,427.134,363.789,423.489z"/>
<path fill="#006633" stroke="#006633" stroke-width="0.75" stroke-miterlimit="10" d="M303.961,423.489
	c0,7.406-1.264,14.166-3.791,20.279c-2.528,6.113-5.967,11.359-10.316,15.738s-9.449,7.773-15.298,10.184
	s-12.124,3.615-18.825,3.615c-6.643,0-12.888-1.234-18.736-3.703c-5.851-2.469-10.965-5.908-15.343-10.316
	c-4.379-4.408-7.833-9.654-10.36-15.738c-2.528-6.084-3.792-12.77-3.792-20.059v-98.11h24.159v58.255
	c1.292-1.646,2.866-3.115,4.718-4.408s3.85-2.352,5.995-3.175c2.146-0.822,4.365-1.454,6.657-1.896
	c2.293-0.44,4.526-0.661,6.701-0.661c6.701,0,12.977,1.249,18.825,3.747s10.948,5.981,15.298,10.449
	c4.35,4.467,7.788,9.742,10.316,15.826C302.697,409.601,303.961,416.259,303.961,423.489z M279.714,423.489
	c0-3.645-0.632-7.039-1.896-10.186c-1.264-3.145-2.982-5.863-5.158-8.154c-2.175-2.293-4.717-4.086-7.627-5.379
	c-2.909-1.293-6.01-1.939-9.302-1.939s-6.393,0.72-9.303,2.16c-2.909,1.44-5.451,3.35-7.626,5.731
	c-2.176,2.381-3.88,5.113-5.114,8.199c-1.234,3.088-1.852,6.275-1.852,9.568c0,3.645,0.617,7.023,1.852,10.139
	s2.938,5.82,5.114,8.113c2.175,2.291,4.717,4.1,7.626,5.422c2.91,1.322,6.011,1.984,9.303,1.984s6.393-0.662,9.302-1.984
	c2.91-1.322,5.452-3.131,7.627-5.422c2.176-2.293,3.895-4.998,5.158-8.113C279.082,430.513,279.714,427.134,279.714,423.489z"/>
<path fill="#006633" d="M235.811,501.962c0,2.162-0.37,4.137-1.107,5.922c-0.738,1.785-1.743,3.318-3.014,4.598
	s-2.76,2.27-4.468,2.975c-1.709,0.703-3.541,1.055-5.498,1.055c-1.941,0-3.765-0.359-5.473-1.082
	c-1.709-0.721-3.203-1.725-4.481-3.012c-1.279-1.287-2.288-2.82-3.026-4.598c-0.738-1.777-1.107-3.729-1.107-5.857v-28.656h7.056
	v17.016c0.377-0.48,0.837-0.91,1.378-1.289c0.541-0.377,1.124-0.686,1.751-0.926c0.626-0.24,1.275-0.426,1.945-0.555
	c0.669-0.129,1.321-0.193,1.957-0.193c1.957,0,3.789,0.365,5.498,1.096c1.708,0.729,3.197,1.746,4.468,3.051
	s2.275,2.846,3.014,4.623C235.44,497.905,235.811,499.849,235.811,501.962z M228.729,501.962c0-1.064-0.185-2.057-0.554-2.975
	c-0.37-0.92-0.872-1.713-1.507-2.383c-0.636-0.67-1.378-1.193-2.228-1.57c-0.85-0.379-1.756-0.566-2.717-0.566
	c-0.963,0-1.867,0.209-2.717,0.631c-0.85,0.42-1.594,0.979-2.228,1.674c-0.635,0.695-1.133,1.492-1.494,2.395
	c-0.36,0.9-0.541,1.832-0.541,2.795c0,1.064,0.18,2.051,0.541,2.961c0.361,0.91,0.859,1.699,1.494,2.369
	c0.634,0.67,1.378,1.197,2.228,1.584s1.754,0.578,2.717,0.578c0.961,0,1.867-0.191,2.717-0.578s1.592-0.914,2.228-1.584
	c0.635-0.67,1.137-1.459,1.507-2.369C228.544,504.013,228.729,503.026,228.729,501.962z"/>
<path fill="#006633" d="M297.56,516.511h-16.07v-7.004h16.07c0.479,0,0.892-0.172,1.236-0.516c0.343-0.344,0.515-0.756,0.515-1.236
	c0-0.498-0.172-0.824-0.515-0.979c-0.345-0.154-0.757-0.232-1.236-0.232h-7.314c-1.219,0-2.36-0.23-3.425-0.695
	c-1.065-0.463-1.992-1.094-2.781-1.893c-0.79-0.797-1.413-1.729-1.867-2.793c-0.455-1.064-0.683-2.207-0.683-3.426
	s0.228-2.361,0.683-3.426c0.454-1.064,1.077-1.99,1.867-2.781c0.789-0.789,1.716-1.412,2.781-1.867
	c1.064-0.453,2.206-0.682,3.425-0.682h14.242v7.004h-14.242c-0.48,0-0.893,0.172-1.235,0.516c-0.345,0.344-0.516,0.756-0.516,1.236
	c0,0.498,0.171,0.924,0.516,1.275c0.343,0.352,0.755,0.527,1.235,0.527h7.314c1.201,0,2.334,0.201,3.399,0.605
	c1.064,0.402,1.991,0.965,2.781,1.688c0.789,0.721,1.416,1.588,1.88,2.6c0.463,1.014,0.695,2.121,0.695,3.322
	c0,1.219-0.232,2.357-0.695,3.412c-0.464,1.057-1.091,1.984-1.88,2.781c-0.79,0.799-1.717,1.426-2.781,1.881
	C299.894,516.284,298.761,516.511,297.56,516.511z"/>
<path fill="#006633" d="M249.562,488.415v0.002c-0.831,0.004-1.638,0.078-2.419,0.225c-0.796,0.15-1.567,0.375-2.313,0.674
	c-0.746,0.301-1.447,0.666-2.103,1.092c-0.654,0.428-1.263,0.918-1.824,1.471c-0.563,0.555-1.064,1.168-1.507,1.842
	s-0.824,1.408-1.146,2.203c-0.322,0.793-0.563,1.635-0.725,2.527c-0.161,0.889-0.241,1.828-0.241,2.816v7.621v7.623h3.502h3.503
	v-7.623v-7.621c0-0.465,0.034-0.902,0.106-1.318c0.069-0.412,0.177-0.803,0.318-1.168s0.308-0.699,0.498-1.008
	c0.192-0.307,0.407-0.584,0.647-0.834c0.24-0.248,0.501-0.467,0.782-0.656s0.583-0.348,0.904-0.477
	c0.32-0.127,0.652-0.223,0.995-0.287c0.344-0.064,0.698-0.098,1.065-0.098h3.925v-7.006H249.562z"/>
<path fill="#006633" d="M279.013,509.005c-0.644,1.588-1.527,2.936-2.652,4.043c-1.124,1.107-2.434,1.961-3.927,2.563
	c-1.487,0.598-3.075,0.896-4.766,0.9l0,0c-0.003,0-0.004,0-0.006,0c-0.003,0-0.004,0-0.006,0l0,0c-1.69-0.004-3.279-0.303-4.766-0.9
	c-1.494-0.602-2.804-1.455-3.928-2.563s-2.009-2.455-2.652-4.043s-0.966-3.369-0.966-5.344v-15.246h7.005v15.246
	c0,0.928,0.142,1.756,0.425,2.486c0.283,0.729,0.665,1.342,1.146,1.84c0.479,0.498,1.043,0.877,1.687,1.133
	c0.638,0.256,1.323,0.385,2.055,0.387c0.73-0.002,1.416-0.131,2.054-0.387c0.645-0.256,1.207-0.635,1.688-1.133
	s0.862-1.111,1.146-1.84c0.283-0.73,0.425-1.559,0.425-2.486v-15.246h7.005v15.246C279.979,505.636,279.657,507.417,279.013,509.005
	z"/>
<path fill="#95C11F" d="M353.104,516.511h-7.082v-36.42h7.082V516.511z"/>
<path fill="#95C11F" d="M379.602,516.511h-16.069v-7.004h16.069c0.48,0,0.893-0.172,1.236-0.516
	c0.343-0.344,0.515-0.756,0.515-1.236c0-0.498-0.172-0.824-0.515-0.979c-0.344-0.154-0.756-0.23-1.236-0.23h-7.313
	c-1.22,0-2.361-0.232-3.426-0.695c-1.064-0.465-1.991-1.096-2.781-1.895c-0.789-0.797-1.412-1.729-1.867-2.793
	s-0.682-2.207-0.682-3.426s0.227-2.361,0.682-3.426s1.078-1.99,1.867-2.781c0.79-0.789,1.717-1.412,2.781-1.867
	c1.064-0.453,2.206-0.682,3.426-0.682h14.241v7.006h-14.241c-0.481,0-0.894,0.17-1.236,0.514c-0.344,0.344-0.516,0.756-0.516,1.236
	c0,0.498,0.172,0.924,0.516,1.275c0.343,0.352,0.755,0.527,1.236,0.527h7.313c1.202,0,2.335,0.201,3.399,0.605
	s1.991,0.965,2.781,1.688c0.79,0.721,1.416,1.588,1.88,2.6c0.464,1.014,0.695,2.121,0.695,3.322c0,1.219-0.231,2.357-0.695,3.412
	c-0.464,1.057-1.09,1.984-1.88,2.781c-0.79,0.799-1.717,1.426-2.781,1.881S380.804,516.511,379.602,516.511z"/>
<path fill="#95C11F" d="M335.487,501.962c0,2.162-0.369,4.137-1.107,5.922s-1.742,3.318-3.013,4.598
	c-1.271,1.279-2.76,2.27-4.468,2.975c-1.709,0.703-3.541,1.055-5.499,1.055c-1.94,0-3.764-0.359-5.472-1.082
	c-1.709-0.721-3.203-1.725-4.481-3.012c-1.279-1.287-2.288-2.82-3.025-4.598c-0.738-1.777-1.107-3.729-1.107-5.857v-28.656h7.056
	v17.016c0.377-0.48,0.837-0.91,1.378-1.289c0.541-0.377,1.124-0.686,1.751-0.926s1.275-0.426,1.944-0.555
	c0.67-0.129,1.322-0.193,1.957-0.193c1.958,0,3.79,0.365,5.499,1.096c1.708,0.729,3.196,1.746,4.468,3.051
	c1.271,1.305,2.274,2.846,3.013,4.623S335.487,499.849,335.487,501.962z M328.405,501.962c0-1.064-0.185-2.057-0.554-2.975
	c-0.369-0.92-0.872-1.713-1.506-2.383c-0.636-0.67-1.378-1.193-2.228-1.57c-0.851-0.379-1.756-0.566-2.718-0.566
	s-1.866,0.209-2.717,0.631c-0.85,0.42-1.593,0.979-2.228,1.674s-1.133,1.492-1.493,2.395c-0.36,0.9-0.541,1.832-0.541,2.795
	c0,1.064,0.181,2.051,0.541,2.961s0.858,1.699,1.493,2.369s1.378,1.197,2.228,1.584c0.851,0.387,1.755,0.578,2.717,0.578
	s1.867-0.191,2.718-0.578c0.85-0.387,1.592-0.914,2.228-1.584c0.634-0.67,1.137-1.459,1.506-2.369S328.405,503.026,328.405,501.962z
	"/>
<path fill="#95C11F" d="M344.305,516.511h-7.082v-27.58h7.082V516.511z"/>
<circle fill="#95C11F" cx="340.763" cy="483.62" r="3.53"/>
<path fill="#95C11F" d="M361.884,516.511h-7.082v-27.58h7.082V516.511z"/>
<circle fill="#95C11F" cx="358.342" cy="483.62" r="3.53"/>
</svg>
